<svg width="30" height="30" viewBox="0 0 80 80" fill="none" xmlns="http://www.w3.org/2000/svg" aria-hidden="true">
  <path d="M39.916 62.656C52.6351 62.656 62.946 52.3451 62.946 39.626C62.946 26.9069 52.6351 16.596 39.916 16.596C27.1969 16.596 16.886 26.9069 16.886 39.626C16.886 52.3451 27.1969 62.656 39.916 62.656Z" fill="black"/>
  <path d="M39.916 10.16C40.744 10.16 41.416 9.489 41.416 8.66V1.5C41.416 0.671 40.744 0 39.916 0C39.088 0 38.416 0.671 38.416 1.5V8.66C38.416 9.489 39.088 10.16 39.916 10.16Z" fill="black"/>
  <path d="M39.916 69.672C39.088 69.672 38.416 70.343 38.416 71.172V78.333C38.416 79.162 39.088 79.833 39.916 79.833C40.744 79.833 41.416 79.162 41.416 78.333V71.172C41.416 70.343 40.744 69.672 39.916 69.672Z" fill="black"/>
  <path d="M16.755 18.876C17.048 19.168 17.432 19.315 17.816 19.315C18.2 19.315 18.584 19.169 18.877 18.876C19.463 18.29 19.463 17.34 18.877 16.754L13.813 11.691C13.227 11.106 12.278 11.106 11.692 11.691C11.106 12.276 11.106 13.227 11.692 13.813L16.755 18.876Z" fill="black"/>
  <path d="M63.078 60.957C62.492 60.371 61.543 60.371 60.957 60.957C60.371 61.542 60.371 62.492 60.957 63.078L66.02 68.141C66.313 68.434 66.697 68.58 67.081 68.58C67.465 68.58 67.849 68.434 68.142 68.141C68.728 67.556 68.728 66.606 68.142 66.02L63.078 60.957Z" fill="black"/>
  <path d="M8.662 38.415H1.5C0.672 38.415 0 39.087 0 39.915C0 40.744 0.672 41.415 1.5 41.415H8.662C9.49 41.415 10.162 40.743 10.162 39.915C10.162 39.087 9.491 38.415 8.662 38.415Z" fill="black"/>
  <path d="M78.333 38.416H71.172C70.344 38.416 69.672 39.087 69.672 39.916C69.672 40.745 70.344 41.416 71.172 41.416H78.333C79.161 41.416 79.833 40.745 79.833 39.916C79.833 39.087 79.161 38.416 78.333 38.416Z" fill="black"/>
  <path d="M16.755 60.954L11.691 66.019C11.105 66.605 11.105 67.555 11.691 68.14C11.984 68.433 12.368 68.579 12.752 68.579C13.136 68.579 13.52 68.433 13.813 68.14L18.877 63.075C19.463 62.489 19.463 61.539 18.877 60.954C18.29 60.369 17.341 60.369 16.755 60.954Z" fill="black"/>
  <path d="M66.02 11.69L60.957 16.753C60.371 17.339 60.371 18.289 60.957 18.874C61.25 19.167 61.634 19.313 62.018 19.313C62.402 19.313 62.786 19.167 63.079 18.874L68.142 13.811C68.728 13.225 68.728 12.275 68.142 11.69C67.555 11.104 66.606 11.104 66.02 11.69Z" fill="black"/>
</svg>
